<svg width="173" height="38" viewBox="0 0 173 38" fill="none" xmlns="http://www.w3.org/2000/svg">
<path d="M155.077 10.4873L154.97 11.1767L155.898 12.8465C157.098 11.98 158.141 11.1668 158.992 10.4873H155.077Z" fill="#ED1D49"/>
<path d="M160.165 11.4329L161.419 8.43262C160.285 9.82508 159.225 11.2765 158.244 12.7808C157.82 13.3911 157.377 14.0421 156.936 14.7142L159.197 18.7802C160.551 17.8222 161.736 16.9236 162.705 16.1537L160.165 11.4329Z" fill="#ED1D49"/>
<path d="M162.025 25.8021C161.703 26.2662 161.371 26.7514 161.035 27.2527H163.199L163.454 25.6251L165.199 21.4551C164.065 22.8471 163.006 24.2982 162.025 25.8021V25.8021Z" fill="#ED1D49"/>
<path d="M168.443 10.4873L164.702 14.9098C163.657 16.3085 161.843 18.81 160.176 21.4612L159.408 26.3306C161.547 24.8081 163.245 23.4416 164.314 22.5455L164.599 20.7359L172.891 11.178L173 10.4885L168.443 10.4873Z" fill="#ED1D49"/>
<path d="M149.426 10.4873H139.171L136.538 27.2514H140.845L141.768 21.3746H144.277L147.312 26.0372C148.7 25.0581 149.911 24.1373 150.902 23.3562L149.463 21.2459C150.978 21.0082 152.192 20.4632 153.106 19.6108C154.019 18.7584 154.583 17.651 154.796 16.2887L154.836 16.0324C155.106 14.3161 154.758 12.9628 153.793 11.9726C152.827 10.9824 151.372 10.4873 149.426 10.4873ZM150.46 16.0077L150.419 16.2627C150.391 16.5005 150.315 16.7301 150.194 16.937C150.074 17.1438 149.912 17.3235 149.718 17.4645C149.335 17.7368 148.818 17.873 148.169 17.873H142.322L142.864 14.4234H148.711C150.043 14.4234 150.626 14.9515 150.46 16.0077V16.0077Z" fill="#ED1D49"/>
<path d="M150.575 25.3233C150.152 25.9335 149.709 26.5809 149.27 27.2517H152.982L153.091 26.5623L152.054 25.0411L153.756 20.9751C152.62 22.3676 151.558 23.819 150.575 25.3233V25.3233Z" fill="#ED1D49"/>
<path d="M66.2126 20.168C66.4882 20.7811 66.5624 21.4965 66.4354 22.3143L66.3945 22.5705C66.2982 23.2604 66.0555 23.9217 65.6826 24.5101C65.3096 25.0984 64.8152 25.6002 64.2324 25.9817C63.0237 26.8069 61.4688 27.2195 59.5678 27.2195H49.3809L52.0195 10.4541H61.7151C63.6466 10.4541 65.0789 10.8461 66.0121 11.63C66.9453 12.4139 67.2976 13.5279 67.069 14.9719L67.0294 15.2281C66.9321 15.9264 66.683 16.5949 66.2996 17.1866C65.9162 17.7783 65.4079 18.2788 64.8104 18.653C65.4245 18.9991 65.9149 19.5289 66.2126 20.168V20.168ZM55.7212 14.3406L55.3041 16.9993H60.6866C61.2881 16.9993 61.746 16.9011 62.0604 16.7048C62.2175 16.6062 62.3503 16.4734 62.4489 16.3163C62.5475 16.1592 62.6093 15.9819 62.6297 15.7975L62.6693 15.5425C62.7955 14.7421 62.2741 14.3415 61.1049 14.3406H55.7212ZM62.1 21.8031C62.2312 20.9688 61.7039 20.5517 60.5183 20.5517H54.746L54.3079 23.3366H60.0814C61.2654 23.3366 61.9255 22.9109 62.0616 22.0593L62.1 21.8031Z" fill="white"/>
<path d="M69.954 10.4541H84.4714L83.8526 14.3642H73.6508L73.2535 16.8941H82.9726L82.3662 20.7535H72.6508L72.2498 23.3082H82.4528L81.834 27.2182H67.3203L69.954 10.4541Z" fill="white"/>
<path d="M91.4623 14.4941H85.5415L86.1764 10.4541H102.326L101.693 14.4917H95.773L93.773 27.2207H89.4611L91.4623 14.4941Z" fill="white"/>
<path d="M104.137 10.4541H118.68L118.045 14.4917H107.814L107.385 17.2259H117.128L116.494 21.2646H106.75L105.819 27.2207H101.502L104.137 10.4541Z" fill="#ED1D49"/>
<path d="M122.102 26.5449C120.993 25.895 120.144 24.8781 119.704 23.6696C119.234 22.4269 119.127 20.9874 119.385 19.3511L120.782 10.4541H125.093L123.684 19.4241C123.483 20.7056 123.655 21.6764 124.2 22.3365C124.746 22.9967 125.653 23.3288 126.923 23.3329C128.205 23.3329 129.224 23.0008 129.979 22.3365C130.734 21.6723 131.211 20.7011 131.411 19.4229L132.814 10.4541H137.131L135.734 19.3474C135.474 20.9977 134.91 22.4417 134.042 23.6795C133.195 24.8984 132.054 25.884 130.725 26.5449C129.336 27.2297 127.804 27.5758 126.256 27.5549C124.615 27.5541 123.23 27.2174 122.102 26.5449Z" fill="#ED1D49"/>
<path d="M24.9558 9.20898C13.9112 9.20898 9.22551 16.2407 9.22551 16.2407C9.89815 16.0266 10.6118 15.9744 11.3084 16.0884C11.3084 16.0884 7.20322 20.2225 5.16113 25.8543C5.16113 25.8543 10.2453 25.2354 14.4743 27.9238C13.4347 19.1283 21.5288 15.9857 24.462 18.0639C24.061 16.9029 22.6538 15.0339 18.9347 15.8421C22.2441 12.4024 28.8135 13.8877 32.1773 18.0416C32.4129 17.3932 32.5692 16.7187 32.6427 16.0327C32.6427 16.0327 34.5548 17.0328 35.092 18.6493C35.2157 17.5849 36.0932 16.2976 36.0932 16.2976C36.0932 16.2976 36.8123 17.2309 37.2875 18.8424C37.6373 18.3655 38.1096 17.9922 38.6543 17.7618C39.199 17.5315 39.7958 17.4528 40.3816 17.5341C40.3816 17.5341 36.0004 9.20898 24.9558 9.20898Z" fill="#5F5F68"/>
<path d="M18.936 15.838C14.1674 17.1624 11.223 20.7086 10.0522 26.1584C11.6213 26.4774 13.1209 27.0739 14.4805 27.9197C13.4409 19.1242 21.535 15.9816 24.4682 18.0598C24.0597 16.8988 22.6488 15.0335 18.936 15.838Z" fill="white"/>
<path d="M29.9434 9.83496C32.8741 11.0727 35.7454 12.6236 37.6414 16.7948L38.8097 17.7034C39.3121 17.5275 39.8485 17.4707 40.3766 17.5375C40.3766 17.5375 37.3394 11.7572 29.9434 9.83496Z" fill="#636363"/>
<path d="M19.2392 11.335C16.4434 7.26278 12.624 5.87402 12.624 5.87402C12.624 5.87402 9.71066 7.94602 10.4483 12.725C10.9743 10.0118 12.5325 8.66887 12.5325 8.66887C12.5325 8.66887 14.3889 10.0465 15.1649 12.8389C15.9409 15.6312 19.2392 11.335 19.2392 11.335Z" fill="#5F5F68"/>
<path d="M37.939 20.3473C38.5355 18.9857 39.6543 18.9399 39.6543 18.9399C39.5665 19.7868 39.3089 20.6073 38.8969 21.3523C38.6469 20.9574 38.3214 20.6159 37.939 20.3473V20.3473Z" fill="white"/>
<path d="M26.3325 21.7843C32.7781 22.9626 33.4192 30.4486 37.1358 30.4486C39.3945 30.4486 40.2125 29.1304 40.2125 29.1304C38.7571 29.3247 37.7014 28.051 37.6259 27.1809C37.5504 26.3108 37.7385 25.1782 37.7385 25.1782C37.7385 25.1782 39.7187 25.2723 40.5665 25.9332C41.3561 25.4827 42.3648 25.3837 42.3648 25.3837C42.3648 25.3837 41.3041 23.7078 38.5281 22.8995C38.1742 23.6979 37.2831 24.4405 37.2831 24.4405C37.2831 24.4405 35.5331 21.6741 31.3115 20.6777C31.6107 21.229 31.7947 21.8355 31.8523 22.4601C31.8523 22.4601 29.9031 20.9216 26.3325 21.7843Z" fill="white"/>
<path d="M26.0895 25.2702C25.3345 24.4224 25.4942 23.6005 25.4942 23.6005C25.4942 23.6005 25.8655 23.2168 26.9645 23.2168C29.3011 23.2168 31.4039 27.3769 33.2764 29.1308C30.5932 28.1926 25.7702 30.9874 24.8667 25.7888C25.6984 27.2531 26.8556 27.263 26.8556 27.263C26.69 26.8846 26.6313 26.4681 26.686 26.0587C27.4051 26.8298 28.8543 26.857 28.8543 26.857C27.3618 25.7789 26.7293 23.8864 26.7293 23.8864C26.1823 24.4409 26.0895 25.2702 26.0895 25.2702Z" fill="white"/>
<path d="M25.4584 22.1557C21.7975 23.3018 23.9299 30.784 28.8643 30.211C33.7988 29.6379 35.9188 31.1021 36.7852 33.3635C35.4181 32.4886 33.8289 32.0243 32.2059 32.0255C32.6043 32.201 32.9551 32.4691 33.2289 32.8075C33.5027 33.146 33.6917 33.545 33.7802 33.9713C32.8911 33.1258 31.7088 32.6581 30.4819 32.6667C27.8532 32.6667 25.1403 33.6395 22.8804 32.684C20.4608 29.4015 21.4472 26.1734 21.4472 26.1734C20.3965 26.7403 20.1737 27.9236 20.1737 27.9236C20.1737 27.9236 19.4559 22.1012 25.4584 22.1557Z" fill="white"/>
<path d="M36.7832 33.3635C31.5914 27.1635 23.1706 36.0593 21.4478 26.1733C21.4478 26.1733 20.4577 29.4014 22.881 32.6802C25.1409 33.6358 27.8537 32.6629 30.4825 32.6629C31.7098 32.6555 32.8921 33.1245 33.7808 33.9712C33.6916 33.5458 33.5024 33.1478 33.2289 32.8101C32.9553 32.4724 32.6053 32.2047 32.2077 32.0292C33.829 32.0278 35.4168 32.4908 36.7832 33.3635Z" fill="#5F5F68"/>
<path d="M25.7622 16.2129C26.6496 18.2428 27.6496 19.3877 27.6496 19.3877C27.6496 19.3877 28.8798 19.5585 29.9949 19.0436C29.9949 19.0436 28.7981 16.9791 25.7622 16.2129Z" fill="white"/>
<path d="M28.9048 9.58789C31.8355 10.8256 33.6907 12.3109 34.8046 15.8126L36.5447 16.2123C37.2427 17.5009 39.7823 17.4625 40.3813 17.5306C40.3764 17.5318 37.0261 11.1079 28.9048 9.58789Z" fill="#ED1D49"/>
<path d="M32.229 7.51228C33.2748 5.62719 34.6609 5.25586 34.6609 5.25586C34.6609 5.25586 36.4716 7.45535 36.5879 11.1042C35.5225 10.2998 34.3378 9.66712 33.0768 9.22905C33.7678 9.16337 34.4648 9.24781 35.1201 9.4766C35.0434 8.37335 34.6597 7.31353 34.0124 6.41687C34.0124 6.41687 33.328 6.57407 32.229 7.51228Z" fill="#ED1D49"/>
<path d="M40.6265 28.3089C41.2517 27.7336 41.7649 27.0474 42.1401 26.2852C41.7222 26.3631 41.317 26.498 40.9359 26.6862C40.7195 27.1992 40.614 27.7522 40.6265 28.3089V28.3089Z" fill="#ED1D49"/>
<path d="M35.3269 0.92334L34.817 1.17089C34.195 1.46426 33.5933 1.79922 33.0163 2.17347C32.4435 2.54592 31.8934 2.95221 31.369 3.39018C30.8492 3.82675 30.3534 4.29118 29.8839 4.78142C29.6475 5.02897 29.4185 5.27652 29.1957 5.53892C29.0856 5.6627 28.9767 5.80009 28.869 5.93501C28.869 5.93501 24.0138 5.9251 21.8281 7.73594C25.3145 6.93016 29.5447 7.72851 29.5447 7.72851L29.8603 7.28663L29.9841 7.1183L30.124 6.94006C30.2193 6.81629 30.317 6.70241 30.4185 6.58483C30.619 6.34965 30.8282 6.12067 31.0373 5.89664C31.4678 5.44858 31.9222 5.02423 32.3987 4.62546C32.8717 4.22945 33.3676 3.86162 33.8839 3.52386C34.2395 3.29364 34.6042 3.08116 34.9779 2.88642C35.4139 3.36586 35.8097 3.88045 36.1611 4.42495C36.3872 4.77894 36.5959 5.14367 36.7873 5.51912C36.9755 5.89045 37.1487 6.28158 37.301 6.67518C37.6067 7.46453 37.8391 8.28035 37.9953 9.11232C38.072 9.52944 38.1314 9.95028 38.1685 10.3711C38.1883 10.5815 38.2007 10.7907 38.2094 10.9999V11.5953L38.197 12.0631L38.5757 12.3231L38.6438 12.3701L38.7242 12.427L38.8864 12.5508C38.9953 12.6333 39.103 12.72 39.2094 12.8107C39.4223 12.989 39.6289 13.1821 39.8282 13.3739C40.2279 13.7661 40.5981 14.1873 40.9359 14.6339C41.2714 15.076 41.571 15.5441 41.8319 16.0338C42.0549 16.4618 42.2448 16.9062 42.4 17.3632C42.3332 17.6615 42.2651 17.9598 42.1847 18.2556C42.0894 18.6195 41.978 18.9809 41.8629 19.3399C41.7478 19.6988 41.6153 20.0528 41.4792 20.4019C41.4111 20.5764 41.3381 20.7484 41.2651 20.9193L41.1512 21.1668C41.1153 21.2473 41.072 21.3364 41.0398 21.3995L40.7069 22.0642L41.3257 22.4528C41.9924 22.8717 42.6145 23.3578 43.1822 23.9035C43.3257 24.0372 43.4594 24.1807 43.5943 24.3218C43.7292 24.4629 43.8579 24.6115 43.9792 24.765C44.228 25.0656 44.4566 25.3823 44.6636 25.7131C45.082 26.3694 45.4147 27.0765 45.6537 27.8173C45.7736 28.186 45.8692 28.5623 45.9396 28.9436C45.9743 29.133 46.0027 29.3236 46.0238 29.513V29.5254C45.5318 29.7237 45.0501 29.9467 44.5807 30.1937C43.9249 30.5428 43.2924 30.9339 42.6871 31.3647C42.0819 31.787 41.5032 32.2463 40.9544 32.7398C40.4098 33.2234 39.9015 33.7463 39.4334 34.3043C39.9896 33.8494 40.5782 33.4358 41.1945 33.0666C41.8023 32.6959 42.4317 32.3619 43.0795 32.0665C43.7184 31.777 44.3753 31.529 45.046 31.3238C45.7063 31.1206 46.38 30.9638 47.0621 30.8547L47.6649 30.7582V29.8781L47.6562 29.6974C47.6488 29.5736 47.6376 29.461 47.6253 29.3446C47.6005 29.1132 47.5659 28.8854 47.525 28.6577C47.441 28.2074 47.3282 27.7629 47.1871 27.3271C46.9065 26.4561 46.5164 25.6243 46.0263 24.8516C45.7837 24.4633 45.5163 24.0912 45.2255 23.7376C45.0844 23.5581 44.9297 23.3923 44.7787 23.2215C44.6277 23.0507 44.4656 22.891 44.301 22.7363C43.8232 22.2754 43.3105 21.8521 42.7676 21.4701C42.8369 21.3079 42.905 21.1445 42.9693 20.9811C43.1186 20.5999 43.2573 20.2158 43.3851 19.8288C43.5089 19.4414 43.6327 19.0527 43.7329 18.6579C43.8332 18.263 43.9297 17.867 44.0151 17.4684L44.0584 17.2666L43.9953 17.0661C43.8016 16.4478 43.5531 15.848 43.2527 15.2739C42.9532 14.7043 42.608 14.16 42.2205 13.6462C41.8345 13.1378 41.4118 12.6583 40.9557 12.2117C40.7267 11.9889 40.4916 11.7723 40.2453 11.5655C40.1215 11.4616 39.9978 11.3613 39.8678 11.2611L39.822 11.2264C39.822 11.1286 39.822 11.0308 39.8158 10.9331C39.8059 10.6942 39.7923 10.4565 39.77 10.2201C39.728 9.74729 39.6624 9.27818 39.577 8.81278C39.4053 7.88106 39.1484 6.96706 38.8096 6.0823C38.6376 5.64042 38.4383 5.20597 38.2317 4.78018C38.0162 4.35572 37.7791 3.94259 37.5213 3.54243C36.8813 2.59663 36.146 1.71901 35.3269 0.92334V0.92334Z" fill="#ED1D49"/>
<path d="M40.3067 17.4002L40.2139 17.2207C40.2399 17.2727 40.2758 17.3408 40.3067 17.4002Z" fill="white"/>
<path d="M40.3299 17.4467L40.3062 17.4004L40.3299 17.4467Z" fill="white"/>
<path d="M40.3459 17.4712L40.3335 17.4463L40.3459 17.4712Z" fill="white"/>
<path d="M40.3754 17.5342L40.3418 17.4707L40.3754 17.5342Z" fill="white"/>
<path d="M36.5449 17.0364C36.852 17.6125 37.0984 18.2189 37.2801 18.846C37.6294 18.3684 38.1015 17.9943 38.6462 17.7633C39.191 17.5323 39.788 17.4531 40.3741 17.534C38.738 16.4324 37.233 16.7752 36.5449 17.0364Z" fill="white"/>
<path d="M32.6406 16.0325C28.7136 11.1867 20.0242 10.017 14.3794 16.1637C15.3287 15.577 17.0056 15.2416 18.9289 15.8456L18.9487 15.8333C22.2631 12.4096 28.82 13.8962 32.179 18.0439C32.4133 17.3945 32.5683 16.7191 32.6406 16.0325Z" fill="white"/>
<path d="M19.286 35.0656C18.5802 34.4414 17.8389 33.8587 17.0657 33.3204C15.51 32.2387 13.8479 31.3188 12.1052 30.575C10.3532 29.8272 8.53557 29.2434 6.67577 28.831C5.12627 28.4881 3.55483 28.2532 1.97278 28.128C2.11635 27.538 2.28136 26.9521 2.46783 26.3704C3.03088 24.6265 3.76723 22.9434 4.66586 21.3463C4.88987 20.9478 5.12502 20.5542 5.37007 20.1705C5.49383 19.9786 5.6176 19.788 5.74136 19.6011L5.94062 19.3189C6.00374 19.231 6.07552 19.1345 6.12998 19.0627L7.23518 17.6331L5.4369 17.7668L4.62378 17.8262L4.63987 17.8039C4.95696 17.3828 5.297 16.9795 5.65844 16.5958C6.0223 16.2059 6.40102 15.8284 6.80201 15.4633C7.00003 15.2813 7.20176 15.1019 7.40597 14.9273C7.61018 14.7528 7.82181 14.5758 8.02479 14.4223L8.34533 14.1748L8.33667 13.7676V13.3962C8.33667 13.2725 8.33667 13.1388 8.34781 13.0101C8.35771 12.7514 8.3738 12.4927 8.39484 12.2315C8.43568 11.7117 8.49756 11.193 8.57677 10.6794C8.73139 9.65453 8.97404 8.64491 9.30202 7.66173C9.62018 6.69569 10.0567 5.77273 10.6015 4.91392C11.0551 4.20185 11.6114 3.56077 12.2525 3.01149C12.7905 3.22851 13.3198 3.46451 13.8404 3.71949C14.4953 4.04115 15.1331 4.39645 15.7513 4.78396C16.3663 5.17002 16.9588 5.5907 17.5261 6.04399C17.8082 6.2705 18.083 6.50444 18.3454 6.74827C18.4766 6.87205 18.6053 6.99582 18.729 7.1196L18.9097 7.30774L18.9951 7.40057L19.0595 7.4835L19.3998 7.86844C16.5706 2.96075 11.9741 1.18457 11.9741 1.18457L11.6263 1.44821C10.6856 2.16131 9.87968 3.03649 9.24633 4.03264C8.62873 5.00284 8.13402 6.046 7.77355 7.13816C7.41589 8.20929 7.15089 9.30915 6.98147 10.4256C6.89896 10.9802 6.83377 11.5371 6.78592 12.0966C6.76364 12.3763 6.74673 12.6569 6.73518 12.9383C6.72899 13.0794 6.72528 13.2205 6.7228 13.3628V13.3975C6.59904 13.499 6.47527 13.5992 6.35894 13.7032C6.14112 13.8913 5.92577 14.082 5.71413 14.2775C5.29086 14.6662 4.8808 15.0722 4.48393 15.4955C4.08149 15.9227 3.70302 16.3718 3.35026 16.8409C2.98145 17.3284 2.66104 17.8508 2.39357 18.4005L1.80075 19.6469L3.18071 19.5442L3.89606 19.4909C3.67823 19.84 3.4666 20.1928 3.26487 20.5505C2.31177 22.2446 1.53104 24.0302 0.93441 25.8802C0.637557 26.8077 0.389689 27.7501 0.191832 28.7035L0 29.6678H0.970301C2.80479 29.634 4.63895 29.7511 6.45424 30.018C8.27765 30.2864 10.0721 30.724 11.8144 31.3251C13.5666 31.93 15.2527 32.7118 16.8466 33.6583C17.6466 34.1341 18.4185 34.6557 19.1585 35.2203C19.9052 35.7801 20.604 36.4011 21.2476 37.0769C20.6513 36.3527 19.9951 35.6799 19.286 35.0656V35.0656Z" fill="white"/>
<path d="M35.0578 13.8322C35.1199 14.5025 35.0354 15.1782 34.8102 15.8126C33.913 14.3273 31.5318 12.7393 31.5318 12.7393C31.5318 12.7393 31.684 15.0043 31.1011 16.6233L32.2793 17.7522C32.4579 17.1923 32.5798 16.6159 32.6432 16.0317C33.7104 16.6298 34.566 17.5439 35.0924 18.6483C35.8845 17.6965 36.0937 16.2966 36.0937 16.2966C36.496 16.8697 36.8198 17.4941 37.0566 18.1532L38.1061 17.6148C37.2731 15.2271 35.0578 13.8322 35.0578 13.8322Z" fill="white"/>
</svg>
