<svg xmlns="http://www.w3.org/2000/svg" width="117" height="20" fill="none" xmlns:v="https://vecta.io/nano"><g clip-path="url(#A)"><path d="M63.793 9.074a4.15 4.15 0 0 0-1.015-2.444c-.588-.676-1.419-1.199-2.47-1.555-1.024-.346-2.624-.522-4.065-.522-1.35 0-2.537.181-3.525.537-1.016.366-1.812.901-2.366 1.59-.567.706-.856 1.553-.856 2.517v.014a3.28 3.28 0 0 0 .58 1.944c.38.579.947 1.053 1.683 1.408.708.343 1.603.586 2.66.722l3.68.395c1.134.141 1.649.363 1.883.524.281.194.411.596.411.984v.014a1.12 1.12 0 0 1-.335.83c-.249.256-.64.459-1.163.601-.559.152-1.256.229-2.073.229-1.37 0-2.08-.171-2.803-.508-.665-.31-1.051-.741-1.182-1.316l-.075-.313h-3.721l.055.461c.12.974.509 1.579 1.156 2.269.634.677 1.515 1.197 2.619 1.545.943.298 2.068.468 3.35.504l.55.008.869-.009c1.21-.04 2.276-.219 3.175-.534 1.053-.37 1.882-.916 2.461-1.62.594-.724.895-1.345.895-2.32v-.014c0-1.223-.406-2.035-1.207-2.712-.763-.646-2.005-1.084-3.69-1.305l-3.943-.409c-.591-.066-1.072-.17-1.428-.31-.319-.125-.547-.277-.681-.452-.126-.165-.184-.502-.184-.737v-.014c0-.325.1-.731.314-.957.233-.248.597-.444 1.083-.586.52-.151 1.057-.227 1.83-.227 1.207 0 2.171.178 2.866.529.643.324.98.879 1.062 1.425l.05.317h3.584l-.037-.506v.002l.003.001zm16.55 0c-.075-.932-.416-1.754-1.015-2.444-.588-.676-1.419-1.199-2.47-1.555-1.024-.346-2.624-.522-4.064-.522-1.35 0-2.537.181-3.526.537-1.016.366-1.812.901-2.366 1.59-.567.706-.856 1.553-.856 2.517v.014a3.28 3.28 0 0 0 .58 1.944c.38.579.947 1.053 1.683 1.408.708.343 1.603.586 2.66.722l3.68.395c1.133.141 1.649.363 1.883.524.281.194.411.596.411.984v.014a1.12 1.12 0 0 1-.335.83c-.249.256-.64.459-1.163.601-.559.152-1.256.229-2.073.229-1.37 0-2.08-.171-2.803-.508-.665-.31-1.051-.741-1.182-1.316l-.075-.313h-3.721l.055.461c.12.974.509 1.579 1.156 2.269.634.677 1.515 1.197 2.619 1.545.943.298 2.068.468 3.35.504l.55.008.869-.009c1.21-.04 2.276-.219 3.175-.534 1.053-.37 1.882-.916 2.461-1.62.594-.724.895-1.345.895-2.32v-.014c0-1.223-.406-2.035-1.207-2.712-.763-.646-2.005-1.084-3.69-1.305l-3.943-.409c-.591-.066-1.072-.17-1.428-.31-.319-.125-.547-.277-.681-.452-.126-.165-.184-.502-.184-.737v-.014c0-.325.1-.731.314-.957.233-.248.597-.444 1.083-.586.52-.151 1.057-.227 1.83-.227 1.207 0 2.171.178 2.866.529.643.324.981.879 1.062 1.425l.05.317h3.584l-.037-.506v.002l.003.001zm-63.626 3.022v-.423h-.009c-.083-1.989-.763-3.693-1.974-4.941-1.412-1.454-3.632-2.222-6.197-2.222-2.227 0-4.128.929-5.071 1.973V0H0v19.137h3.464v-1.368c1.251 1.135 3.116 1.71 5.188 1.71 2.23 0 4.66-.541 6.081-2.017 1.209-1.256 1.888-2.947 1.973-4.906h.008l.002-.24v-.219l.001-.001zm-8.416 4.675c-1.017 0-1.781-.188-2.577-.575-1.515-.736-2.259-2.346-2.259-4.102 0-2.12 1.208-4.152 3.196-4.61a6.83 6.83 0 0 1 1.64-.188c1.459 0 2.687.438 3.553 1.268s1.319 2.158 1.323 3.55c-.008 2.785-1.967 4.657-4.876 4.657zm90.692-4.691l-.009-.367c-.092-1.948-.883-3.885-2.341-5.208l-.105-.093c-.835-.726-1.85-1.231-2.913-1.539a10.98 10.98 0 0 0-5.94-.037c-1.258.356-2.449.99-3.363 1.936-1.272 1.315-1.939 3.076-2.053 4.887-.13 2.05.629 4 2.056 5.464 1.331 1.368 3.219 2.057 5.085 2.265 1.975.22 4.104-.056 5.857-1.032 1.665-.926 2.915-2.452 3.444-4.288a7.23 7.23 0 0 0 .282-1.988zm16.213-5.851c-1.053-1.08-2.884-1.627-4.748-1.627-1.256 0-2.538.107-4.257.998-.57.295-1.176.795-1.584 1.232V4.87h-3.513v14.285h3.513v-7.384c0-.806.171-1.62.509-2.209s1.024-1.18 1.636-1.497c1.131-.586 2.199-.726 3.034-.726 1.166 0 1.928.306 2.501.91s.984 1.53.984 2.741v8.163h3.513v-8.442c0-1.894-.535-3.402-1.588-4.483v.001zm-68.74 10.174c-1.017.265-1.881.281-2.091.281h-.123c-1.769 0-1.762-.705-1.762-1.319V7.771h4.629V4.882H42.49V0h-3.464v4.883h-3.715v2.889h3.715v7.884c0 1.309.459 2.09 1.364 2.794.886.689 2.162 1.039 3.796 1.039.225-.003 2.652-.048 3.878-.634l.285-.145-1.566-2.387-.316.082-.001-.002zm-24.198-3.821h12.627v-.252l-.005-.222c-.053-1.766-.395-3.734-2.053-5.381-1.436-1.428-3.924-2.246-6.212-2.246-1.468 0-2.782.265-3.903.79a6.94 6.94 0 0 0-1.226.735l-.401.323c-.31.272-.598.58-.859.914l-.184.249a6.98 6.98 0 0 0-.64 1.106c-.426.92-.677 1.981-.732 3.083h-.009l-.003.24v.642h.012l.011.165.01.146.015.143.012.107.013.109.025.171.014.095.014.09.041.213.014.069.014.071.062.258.008.031.015.059.078.273.007.024.014.046.095.283.016.049.116.298.013.033.138.312.005.012.156.309.004.008c1.314 2.447 3.85 3.553 7.144 3.553s6.177-1.005 7.8-3.358l.167-.243-2.55-1.607-.168.18c-1.307 1.402-2.378 2.32-5.25 2.32h-.053l-.047-.001c-1.183-.017-1.879-.344-2.68-.943l-.165-.13-.156-.136-.138-.133-.008-.008-.132-.139-.01-.011-.124-.145-.009-.011-.108-.139-.017-.024-.098-.139-.019-.031-.088-.138-.021-.038-.078-.137-.024-.046-.069-.134-.029-.062-.056-.123-.033-.08-.045-.11-.013-.038-.021-.061-.002-.006-.032-.092-.013-.04-.002-.008-.024-.08-.022-.073-.014-.057-.018-.074-.019-.075-.014-.065-.017-.081-.014-.064-.015-.09s-.02-.152-.02-.321l.001-.116.004-.003-.003.002zm.437-3.039c.101-.215.221-.421.358-.615l.118-.158.224-.257c.077-.081.161-.16.246-.233l.162-.132.072-.053c.2-.145.413-.271.637-.375l.195-.086c.641-.262 1.05-.396 1.911-.396 1.653 0 3.023.654 3.857 1.844.223.317.423.853.563 1.244l.043.12h-8.644l.024-.12c.054-.247.155-.613.235-.784l-.001.001z" fill="#fff"/><path d="M84.53 13.924c.007-.036.022-.07.042-.1a.27.27 0 0 1 .18-.114.27.27 0 0 1 .109.005c.505.126 1.686.381 2.655.311a.27.27 0 0 1 .263.161c.277.616 1.229 2.665 1.898 3.253.113.099.124.271.025.385v-.002l-.361.37a6.5 6.5 0 0 1-4.414-3.288c-.16-.297-.297-.606-.409-.924l.012-.057zm12.206.046l-.201.507c-.776 1.743-2.281 3.056-4.112 3.589l-.247-.295c-.088-.112-.075-.27.029-.37.877-.845 1.59-2.52 1.809-3.072.044-.108.15-.174.266-.171.97.038 1.918-.129 2.477-.255l-.021.067zm-6.004-6.628c1.055-.07 2.942 1.715 3.401 2.166.065.065.094.155.077.245-.092.493-.443 2.169-1.243 3.637-.048.087-.14.141-.24.141H88.86a.27.27 0 0 1-.216-.105l.001-.001c-.276-.357-1.136-1.601-1.457-3.57-.014-.091.017-.182.084-.245.472-.442 2.404-2.197 3.46-2.268zm-4.307 1.476c.012.091-.022.18-.091.242-.913.836-1.641 2.362-1.903 2.958-.046.107-.155.172-.271.161l-.01-.365c0-1.87.79-3.558 2.05-4.746l.225 1.75zm8.555-1.807a6.46 6.46 0 0 1 1.684 2.466c.234.607.376 1.246.418 1.895-.096-.009-.18-.069-.219-.157-.263-.579-1.042-2.188-1.871-2.941-.064-.058-.097-.143-.089-.229l.076-1.033.001-.001zm-4.356-1.703a6.32 6.32 0 0 1 2.055.343.26.26 0 0 1-.221.136c-.643.039-1.346.127-1.682.316a.28.28 0 0 1-.231.028c-.235-.083-.763-.254-1.404-.377a.26.26 0 0 1-.218-.218 6.48 6.48 0 0 1 1.701-.228z" fill="#f60"/></g><defs><clipPath id="A"><path fill="#fff" d="M0 0h117v20H0z"/></clipPath></defs></svg>