<?xml version="1.0" encoding="utf-8"?>
<svg xmlns="http://www.w3.org/2000/svg" width="150" height="32" viewBox="0 0 150 32" fill="none">
<path d="M37.5366 24.1633V22.2319H39.4278V12.0114H37.5366V10.08H44.6789C45.5239 10.08 46.2616 10.2275 46.892 10.5226C47.5223 10.8043 48.0119 11.2134 48.3606 11.7499C48.7228 12.273 48.9039 12.8967 48.9039 13.621V13.8222C48.9039 14.466 48.7831 14.9957 48.5417 15.4116C48.3003 15.8274 48.0052 16.1493 47.6565 16.3773C47.3211 16.6052 46.9992 16.7662 46.6908 16.8601V17.182C46.9992 17.2625 47.3279 17.4235 47.6766 17.6649C48.0387 17.8929 48.3405 18.2148 48.582 18.6306C48.8368 19.0464 48.9642 19.5896 48.9642 20.2602V20.4614C48.9642 21.2394 48.7831 21.9033 48.421 22.4532C48.0589 23.0031 47.5559 23.4256 46.9121 23.7207C46.2817 24.0158 45.5507 24.1633 44.7191 24.1633H37.5366ZM41.6208 22.1917H44.4576C45.1818 22.1917 45.7518 22.0173 46.1677 21.6686C46.5835 21.3199 46.7914 20.837 46.7914 20.22V20.0389C46.7914 19.4219 46.5835 18.9391 46.1677 18.5904C45.7653 18.2417 45.1953 18.0673 44.4576 18.0673H41.6208V22.1917ZM41.6208 16.0755H44.4576C45.1416 16.0755 45.6915 15.9079 46.1073 15.5725C46.5231 15.2238 46.731 14.7543 46.731 14.1642V13.963C46.731 13.3729 46.5231 12.9101 46.1073 12.5748C45.7049 12.2261 45.155 12.0517 44.4576 12.0517H41.6208V16.0755ZM50.4548 24.1633V14.2446H52.527V24.1633H50.4548ZM51.5009 12.8967C51.0986 12.8967 50.7565 12.7693 50.4749 12.5144C50.2067 12.2462 50.0725 11.9042 50.0725 11.4883C50.0725 11.0725 50.2067 10.7373 50.4749 10.4824C50.7565 10.2142 51.0986 10.08 51.5009 10.08C51.9168 10.08 52.2588 10.2142 52.527 10.4824C52.7952 10.7373 52.9294 11.0725 52.9294 11.4883C52.9294 11.9042 52.7952 12.2462 52.527 12.5144C52.2588 12.7693 51.9168 12.8967 51.5009 12.8967ZM58.3185 24.1633C57.7149 24.1633 57.232 23.9822 56.8699 23.6201C56.5212 23.258 56.3468 22.7751 56.3468 22.1715V15.995H53.6106V14.2446H56.3468V10.9653H58.419V14.2446H61.3765V15.995H58.419V21.8094C58.419 22.2118 58.6068 22.413 58.9824 22.413H61.0546V24.1633H58.3185ZM67.0588 24.445C66.1064 24.445 65.2413 24.2438 64.4634 23.8414C63.6989 23.439 63.0886 22.8556 62.6326 22.0911C62.19 21.3265 61.9687 20.4077 61.9687 19.3348V19.0732C61.9687 18.0002 62.19 17.0881 62.6326 16.337C63.0886 15.5725 63.6989 14.9891 64.4634 14.5867C65.2413 14.1709 66.1064 13.963 67.0588 13.963C68.0111 13.963 68.8225 14.1374 69.4932 14.4861C70.1638 14.8348 70.7003 15.2975 71.1027 15.8743C71.5184 16.4511 71.7868 17.0881 71.9075 17.7856L69.8956 18.2081C69.8284 17.7655 69.6876 17.3631 69.4731 17.001C69.2584 16.6388 68.9566 16.3505 68.5677 16.1358C68.1787 15.9212 67.6891 15.8139 67.099 15.8139C66.5222 15.8139 65.9992 15.9481 65.5297 16.2163C65.0737 16.4712 64.7115 16.8467 64.4433 17.343C64.175 17.8258 64.0409 18.416 64.0409 19.1134V19.2945C64.0409 19.992 64.175 20.5888 64.4433 21.0851C64.7115 21.5814 65.0737 21.9569 65.5297 22.2118C65.9992 22.4666 66.5222 22.594 67.099 22.594C67.9708 22.594 68.6347 22.3727 69.0908 21.9301C69.5468 21.474 69.8352 20.8974 69.9559 20.1999L71.9678 20.6626C71.8069 21.3467 71.5184 21.977 71.1027 22.5538C70.7003 23.1306 70.1638 23.5933 69.4932 23.942C68.8225 24.2774 68.0111 24.445 67.0588 24.445ZM76.4301 24.445C75.7192 24.445 75.0821 24.3243 74.5188 24.0828C73.9688 23.8414 73.5262 23.4859 73.191 23.0165C72.8691 22.5471 72.7081 21.977 72.7081 21.3064C72.7081 20.6224 72.8691 20.059 73.191 19.6164C73.5262 19.1604 73.9756 18.8183 74.5389 18.5904C75.1156 18.3624 75.7662 18.2483 76.4905 18.2483H79.5083V17.6045C79.5083 17.0277 79.3339 16.565 78.9852 16.2163C78.6364 15.8676 78.1 15.6932 77.3757 15.6932C76.6648 15.6932 76.1216 15.8608 75.7461 16.1962C75.3705 16.5315 75.1224 16.9674 75.0017 17.5039L73.0703 16.8802C73.2312 16.3437 73.486 15.8608 73.8348 15.4317C74.1969 14.9891 74.673 14.6336 75.2632 14.3654C75.8533 14.0971 76.5642 13.963 77.3958 13.963C78.6835 13.963 79.6961 14.2916 80.4338 14.9488C81.1714 15.6061 81.5403 16.5382 81.5403 17.7454V21.8295C81.5403 22.2319 81.7281 22.4331 82.1037 22.4331H82.9487V24.1633H81.3995C80.93 24.1633 80.5477 24.0426 80.2527 23.8012C79.9576 23.5597 79.8101 23.2312 79.8101 22.8153V22.755H79.5083C79.401 22.9562 79.24 23.1909 79.0255 23.4592C78.8108 23.7274 78.4956 23.9621 78.0799 24.1633C77.6641 24.3511 77.1142 24.445 76.4301 24.445ZM76.7319 22.7349C77.5635 22.7349 78.2341 22.5001 78.7438 22.0307C79.2535 21.5478 79.5083 20.8906 79.5083 20.059V19.8579H76.6112C76.0612 19.8579 75.6186 19.9786 75.2833 20.22C74.948 20.448 74.7804 20.79 74.7804 21.2461C74.7804 21.7021 74.9547 22.0643 75.3035 22.3325C75.6522 22.6007 76.1283 22.7349 76.7319 22.7349ZM87.943 24.445C86.6822 24.445 85.636 24.1633 84.8045 23.6C83.9729 23.0367 83.4632 22.185 83.2754 21.0449L85.2069 20.5821C85.3141 21.132 85.4952 21.568 85.7501 21.8899C86.0049 22.2118 86.3201 22.4398 86.6957 22.5739C87.0846 22.7081 87.5004 22.7751 87.943 22.7751C88.6003 22.7751 89.1033 22.6477 89.452 22.3928C89.8141 22.138 89.9952 21.8094 89.9952 21.407C89.9952 21.0046 89.8275 20.7095 89.4922 20.5218C89.1569 20.334 88.6606 20.1798 88.0034 20.059L87.3193 19.9383C86.6487 19.8176 86.0384 19.6432 85.4885 19.4152C84.9386 19.1872 84.5027 18.872 84.1808 18.4696C83.8589 18.0673 83.6979 17.5508 83.6979 16.9205C83.6979 15.9816 84.0466 15.2573 84.7441 14.7476C85.4416 14.2245 86.3671 13.963 87.5205 13.963C88.6338 13.963 89.5459 14.2179 90.2567 14.7275C90.981 15.2238 91.4504 15.9011 91.665 16.7595L89.7336 17.3027C89.6129 16.6992 89.358 16.2767 88.9691 16.0352C88.5802 15.7804 88.0973 15.653 87.5205 15.653C86.9572 15.653 86.5146 15.7603 86.1927 15.9749C85.8708 16.1761 85.7098 16.4644 85.7098 16.84C85.7098 17.2424 85.8641 17.5375 86.1726 17.7252C86.4945 17.913 86.9236 18.0538 87.4602 18.1477L88.1643 18.2684C88.8752 18.3892 89.5258 18.5568 90.1159 18.7714C90.706 18.9861 91.1688 19.2945 91.504 19.6969C91.8524 20.0993 92.0271 20.6358 92.0271 21.3064C92.0271 22.2989 91.6586 23.0702 90.9207 23.6201C90.1829 24.17 89.1904 24.445 87.943 24.445ZM93.4437 24.1633V14.2446H95.5159V24.1633H93.4437ZM94.4899 12.8967C94.0875 12.8967 93.7454 12.7693 93.4638 12.5144C93.1949 12.2462 93.0614 11.9042 93.0614 11.4883C93.0614 11.0725 93.1949 10.7373 93.4638 10.4824C93.7454 10.2142 94.0875 10.08 94.4899 10.08C94.905 10.08 95.2471 10.2142 95.5159 10.4824C95.7839 10.7373 95.9183 11.0725 95.9183 11.4883C95.9183 11.9042 95.7839 12.2462 95.5159 12.5144C95.2471 12.7693 94.905 12.8967 94.4899 12.8967ZM97.5854 24.1633V14.2446H99.6175V15.7335H99.9394C100.127 15.3311 100.462 14.9555 100.945 14.6068C101.428 14.2581 102.145 14.0837 103.098 14.0837C103.849 14.0837 104.513 14.2513 105.09 14.5867C105.68 14.922 106.142 15.3981 106.478 16.0151C106.813 16.6187 106.981 17.3497 106.981 18.2081V24.1633H104.909V18.369C104.909 17.5106 104.694 16.8802 104.265 16.4779C103.835 16.062 103.245 15.8542 102.494 15.8542C101.636 15.8542 100.945 16.1358 100.422 16.6992C99.9119 17.2625 99.6577 18.0807 99.6577 19.1537V24.1633H97.5854ZM113.605 24.445C112.612 24.445 111.726 24.2438 110.949 23.8414C110.185 23.4256 109.581 22.8355 109.138 22.0709C108.696 21.3064 108.474 20.4011 108.474 19.3549V19.0531C108.474 18.0069 108.696 17.1082 109.138 16.3571C109.581 15.5926 110.185 15.0025 110.949 14.5867C111.726 14.1709 112.612 13.963 113.605 13.963C114.597 13.963 115.482 14.1709 116.26 14.5867C117.038 15.0025 117.649 15.5926 118.091 16.3571C118.534 17.1082 118.755 18.0069 118.755 19.0531V19.3549C118.755 20.4011 118.534 21.3064 118.091 22.0709C117.649 22.8355 117.038 23.4256 116.26 23.8414C115.482 24.2438 114.597 24.445 113.605 24.445ZM113.605 22.594C114.516 22.594 115.254 22.3057 115.818 21.7289C116.394 21.1388 116.683 20.3273 116.683 19.2945V19.1134C116.683 18.0807 116.401 17.2759 115.838 16.6992C115.275 16.109 114.53 15.8139 113.605 15.8139C112.706 15.8139 111.968 16.109 111.392 16.6992C110.828 17.2759 110.547 18.0807 110.547 19.1134V19.2945C110.547 20.3273 110.828 21.1388 111.392 21.7289C111.968 22.3057 112.706 22.594 113.605 22.594ZM121.439 24.445C120.969 24.445 120.574 24.2907 120.252 23.9822C119.943 23.6738 119.789 23.2781 119.789 22.7952C119.789 22.3124 119.943 21.9234 120.252 21.6283C120.574 21.3199 120.969 21.1656 121.439 21.1656C121.908 21.1656 122.297 21.3199 122.606 21.6283C122.928 21.9368 123.089 22.3258 123.089 22.7952C123.089 23.2781 122.928 23.6738 122.606 23.9822C122.297 24.2907 121.908 24.445 121.439 24.445ZM124.746 24.1633V14.2446H126.818V24.1633H124.746ZM125.792 12.8967C125.39 12.8967 125.048 12.7693 124.766 12.5144C124.497 12.2462 124.364 11.9042 124.364 11.4883C124.364 11.0725 124.497 10.7373 124.766 10.4824C125.048 10.2142 125.39 10.08 125.792 10.08C126.207 10.08 126.549 10.2142 126.818 10.4824C127.086 10.7373 127.221 11.0725 127.221 11.4883C127.221 11.9042 127.086 12.2462 126.818 12.5144C126.549 12.7693 126.207 12.8967 125.792 12.8967ZM133.535 24.445C132.542 24.445 131.657 24.2438 130.88 23.8414C130.115 23.4256 129.512 22.8355 129.069 22.0709C128.626 21.3064 128.405 20.4011 128.405 19.3549V19.0531C128.405 18.0069 128.626 17.1082 129.069 16.3571C129.512 15.5926 130.115 15.0025 130.88 14.5867C131.657 14.1709 132.542 13.963 133.535 13.963C134.528 13.963 135.413 14.1709 136.191 14.5867C136.968 15.0025 137.579 15.5926 138.022 16.3571C138.465 17.1082 138.686 18.0069 138.686 19.0531V19.3549C138.686 20.4011 138.465 21.3064 138.022 22.0709C137.579 22.8355 136.968 23.4256 136.191 23.8414C135.413 24.2438 134.528 24.445 133.535 24.445ZM133.535 22.594C134.447 22.594 135.185 22.3057 135.748 21.7289C136.325 21.1388 136.614 20.3273 136.614 19.2945V19.1134C136.614 18.0807 136.332 17.2759 135.769 16.6992C135.205 16.109 134.461 15.8139 133.535 15.8139C132.636 15.8139 131.898 16.109 131.322 16.6992C130.759 17.2759 130.477 18.0807 130.477 19.1134V19.2945C130.477 20.3273 130.759 21.1388 131.322 21.7289C131.898 22.3057 132.636 22.594 133.535 22.594Z" fill="black"/>
<path d="M16.1315 7.5177C14.1496 7.90639 13.8447 8.21734 13.4637 10.2385C13.0825 8.17848 12.8158 7.86752 10.7959 7.5177C12.7776 7.12901 13.0825 6.81807 13.4637 4.79688C13.8066 6.81807 14.1115 7.12901 16.1315 7.5177Z" fill="#F2590D"/>
<path d="M14.9502 3.15474C13.8069 3.38794 13.6545 3.54343 13.4257 4.70949C13.2352 3.54343 13.0447 3.38794 11.9014 3.15474C13.0447 2.92152 13.1971 2.76605 13.4257 1.59998C13.6545 2.76605 13.845 2.96039 14.9502 3.15474Z" fill="#F2590D"/>
<path d="M14.9502 29.2344C13.8069 29.4676 13.6545 29.6232 13.4257 30.7892C13.2352 29.6232 13.0447 29.4676 11.9014 29.2344C13.0447 29.0012 13.1971 28.8458 13.4257 27.6797C13.6545 28.8458 13.845 29.0012 14.9502 29.2344Z" fill="#F2590D"/>
<path d="M16.5127 11.6844C14.2261 12.1119 13.8831 12.4617 13.4639 14.8327C13.0447 12.4617 12.7017 12.1119 10.415 11.6844C12.7017 11.2568 13.0447 10.907 13.4639 8.53595C13.8831 10.907 14.2261 11.2568 16.5127 11.6844Z" fill="#F2590D"/>
<path d="M27.0312 11.7145C24.554 12.1809 24.1729 12.5695 23.7156 15.096C23.2583 12.5307 22.8771 12.1809 20.3999 11.7145C22.8771 11.248 23.2583 10.8593 23.7156 8.33282C24.1729 10.8982 24.554 11.248 27.0312 11.7145Z" fill="#F2590D"/>
<path d="M27.8321 21.0262C24.7831 21.6091 24.3259 22.0756 23.7541 25.1851C23.1825 22.0756 22.7251 21.6091 19.6763 21.0262C22.7251 20.4432 23.1825 19.9767 23.7541 16.8672C24.3259 19.9767 24.7831 20.4432 27.8321 21.0262Z" fill="#F2590D"/>
<path d="M16.5127 20.8999C14.2261 21.3275 13.8831 21.6773 13.4639 24.0483C13.0447 21.6773 12.7017 21.3275 10.415 20.8999C12.7017 20.4724 13.0447 20.1225 13.4639 17.7516C13.8831 20.0837 14.2261 20.4335 16.5127 20.8999Z" fill="#F2590D"/>
<path d="M17.2359 16.4309C14.4157 16.975 13.9965 17.4026 13.4629 20.2789C12.9294 17.3637 12.5102 16.9361 9.68994 16.4309C12.5102 15.8867 12.9294 15.4591 13.4629 12.5828C13.9584 15.4591 14.4157 15.8867 17.2359 16.4309Z" fill="#F2590D"/>
<path d="M21.7716 7.5177C19.7899 7.90639 19.485 8.21734 19.1038 10.2385C18.7227 8.17848 18.456 7.86752 16.436 7.5177C18.4178 7.12901 18.7227 6.81807 19.1038 4.79688C19.485 6.81807 19.7899 7.12901 21.7716 7.5177Z" fill="#F2590D"/>
<path d="M9.99525 7.38091C8.81383 7.61412 8.62327 7.7696 8.39461 9.01341C8.16594 7.80846 8.0135 7.61412 6.79395 7.38091C7.97539 7.14769 8.16594 6.99222 8.39461 5.74841C8.62327 6.95335 8.81383 7.14769 9.99525 7.38091Z" fill="#F2590D"/>
<path d="M9.42463 11.4169C8.66243 11.5723 8.5481 11.6889 8.43376 12.4275C8.28132 11.6501 8.16698 11.5335 7.44287 11.4169C8.2051 11.2614 8.31943 11.1448 8.43376 10.4062C8.5481 11.1837 8.66243 11.3003 9.42463 11.4169Z" fill="#F2590D"/>
<path d="M9.42463 16.0762C8.66243 16.2317 8.5481 16.3483 8.43376 17.0868C8.28132 16.3094 8.16698 16.1928 7.44287 16.0762C8.2051 15.9208 8.31943 15.8042 8.43376 15.0656C8.5481 15.8042 8.66243 15.9208 9.42463 16.0762Z" fill="#F2590D"/>
<path d="M9.42463 20.6324C8.66243 20.7879 8.5481 20.9045 8.43376 21.6431C8.28132 20.8656 8.16698 20.749 7.44287 20.6324C8.2051 20.477 8.31943 20.3604 8.43376 19.6218C8.5481 20.3604 8.66243 20.477 9.42463 20.6324Z" fill="#F2590D"/>
<path d="M3.82151 20.5395C3.40228 20.6173 3.36417 20.695 3.28795 21.0836C3.21173 20.6561 3.1355 20.6173 2.75439 20.5395C3.17362 20.4618 3.21173 20.3841 3.28795 19.9953C3.36417 20.3841 3.40228 20.4618 3.82151 20.5395Z" fill="#F2590D"/>
<path d="M3.82151 15.9832C3.40228 16.061 3.36417 16.1387 3.28795 16.5274C3.21173 16.0998 3.1355 16.061 2.75439 15.9832C3.17362 15.9055 3.21173 15.8278 3.28795 15.439C3.36417 15.8278 3.40228 15.9055 3.82151 15.9832Z" fill="#F2590D"/>
<path d="M3.82151 11.3926C3.40228 11.4703 3.36417 11.5481 3.28795 11.9367C3.21173 11.5092 3.1355 11.4703 2.75439 11.3926C3.17362 11.3149 3.21173 11.2371 3.28795 10.8484C3.36417 11.276 3.40228 11.3149 3.82151 11.3926Z" fill="#F2590D"/>
<path d="M9.99525 24.9262C8.81383 25.1594 8.62327 25.3149 8.39461 26.5587C8.16594 25.3538 8.0135 25.1594 6.79395 24.9262C7.97539 24.693 8.16594 24.5376 8.39461 23.2938C8.62327 24.4987 8.81383 24.693 9.99525 24.9262Z" fill="#F2590D"/>
<path d="M21.7716 16.2895C19.7899 16.6783 19.485 16.9892 19.1038 19.0104C18.7227 16.9504 18.456 16.6394 16.436 16.2895C18.4178 15.9009 18.7227 15.59 19.1038 13.5687C19.485 15.59 19.7899 15.9009 21.7716 16.2895Z" fill="#F2590D"/>
<path d="M16.1315 25.063C14.1496 25.4517 13.8447 25.7627 13.4637 27.7838C13.0825 25.7238 12.8158 25.4129 10.7959 25.063C12.7776 24.6743 13.0825 24.3634 13.4637 22.3422C13.8066 24.3634 14.1115 24.6743 16.1315 25.063Z" fill="#F2590D"/>
<path d="M21.7716 25.063C19.7899 25.4517 19.485 25.7627 19.1038 27.7838C18.7227 25.7238 18.456 25.4129 16.436 25.063C18.4178 24.6743 18.7227 24.3634 19.1038 22.3422C19.485 24.3634 19.7899 24.6743 21.7716 25.063Z" fill="#F2590D"/>
</svg>