<svg width="165" height="64" viewBox="0 0 165 64" fill="none" xmlns="http://www.w3.org/2000/svg">
<path d="M118.674 52.7849C117.795 52.7849 116.98 52.6308 116.23 52.3227C115.485 52.009 114.833 51.5748 114.273 51.0203C113.719 50.4657 113.288 49.8158 112.98 49.0708C112.672 48.3257 112.518 47.519 112.518 46.6507C112.518 45.7768 112.672 44.9673 112.98 44.2223C113.288 43.4772 113.719 42.8274 114.273 42.2728C114.833 41.7182 115.485 41.2869 116.23 40.9788C116.98 40.6707 117.795 40.5166 118.674 40.5166C119.547 40.5166 120.357 40.6735 121.101 40.9872C121.846 41.3009 122.498 41.7378 123.058 42.298C123.618 42.8582 124.052 43.5108 124.36 44.2559C124.673 44.9954 124.83 45.7936 124.83 46.6507C124.83 47.519 124.673 48.3257 124.36 49.0708C124.052 49.8158 123.618 50.4657 123.058 51.0203C122.498 51.5748 121.846 52.009 121.101 52.3227C120.357 52.6308 119.547 52.7849 118.674 52.7849ZM118.674 51.2807C119.307 51.2807 119.895 51.1715 120.438 50.953C120.986 50.7346 121.465 50.4236 121.874 50.0203C122.283 49.6114 122.602 49.1212 122.831 48.5498C123.066 47.9784 123.184 47.3454 123.184 46.6507C123.184 45.7152 122.982 44.9001 122.579 44.2055C122.182 43.5108 121.641 42.9731 120.958 42.5921C120.275 42.2056 119.514 42.0123 118.674 42.0123C118.041 42.0123 117.451 42.1244 116.902 42.3484C116.359 42.5669 115.88 42.8806 115.466 43.2896C115.057 43.6929 114.738 44.1803 114.508 44.7517C114.279 45.3175 114.164 45.9505 114.164 46.6507C114.164 47.5807 114.363 48.3929 114.76 49.0876C115.164 49.7822 115.707 50.3228 116.39 50.7093C117.073 51.0903 117.834 51.2807 118.674 51.2807Z" fill="white"/>
<path d="M97.4062 52.5322V40.7681H98.8844L105.183 49.7592V40.7681H106.728V52.5322H105.25L98.9599 43.4402V52.5322H97.4062Z" fill="white"/>
<path d="M89.3062 52.5322V40.7681H90.885V52.5322H89.3062Z" fill="white"/>
<path d="M79.2027 52.7849C78.4133 52.7849 77.6434 52.6756 76.8931 52.4572C76.1429 52.2331 75.5102 51.9138 74.9951 51.4992L75.7846 50.264C76.0757 50.5049 76.406 50.7093 76.7756 50.8774C77.1451 51.0455 77.537 51.1743 77.9513 51.2639C78.3657 51.3536 78.7856 51.3984 79.2111 51.3984C80.0453 51.3984 80.7144 51.2359 81.2183 50.911C81.7278 50.5861 81.9826 50.1099 81.9826 49.4825C81.9826 49.0232 81.8118 48.6338 81.4703 48.3145C81.1343 47.9952 80.5044 47.7039 79.5806 47.4406L78.3041 47.0625C77.2291 46.7488 76.4424 46.337 75.9441 45.8272C75.4458 45.3175 75.1967 44.6788 75.1967 43.9114C75.1967 43.396 75.3003 42.931 75.5074 42.5165C75.7146 42.102 76.0057 41.7462 76.3808 41.4493C76.756 41.1468 77.1983 40.9171 77.7078 40.7603C78.2229 40.5978 78.7856 40.5166 79.3959 40.5166C80.1517 40.5166 80.8544 40.6286 81.5039 40.8527C82.1589 41.0712 82.6992 41.3653 83.1247 41.735L82.3101 42.9198C82.0581 42.707 81.7698 42.5249 81.4451 42.3736C81.1203 42.2168 80.7732 42.0992 80.4037 42.0207C80.0341 41.9367 79.659 41.8947 79.2783 41.8947C78.7688 41.8947 78.3181 41.9703 77.9261 42.1216C77.5398 42.2672 77.2375 42.4857 77.0191 42.777C76.8064 43.0627 76.7 43.41 76.7 43.8189C76.7 44.1159 76.77 44.3763 76.9099 44.6004C77.0499 44.8189 77.2935 45.0206 77.6406 45.2054C77.9877 45.3903 78.4664 45.5724 79.0767 45.7516L80.4373 46.155C81.4843 46.4631 82.2541 46.8692 82.7468 47.3734C83.2395 47.872 83.4859 48.5274 83.4859 49.3397C83.4859 50.0231 83.3179 50.6253 82.982 51.1463C82.6516 51.6617 82.1673 52.065 81.529 52.3563C80.8908 52.642 80.1153 52.7849 79.2027 52.7849Z" fill="white"/>
<path d="M59.2798 52.5322L63.9073 40.7681H65.545L70.3152 52.5322H68.5348L67.3674 49.5827H62.1268L61.0098 52.5322H59.2798ZM62.5719 48.2046H66.9055L64.6883 42.7259L62.5719 48.2046Z" fill="white"/>
<path d="M50.8941 52.7849C49.6791 52.7849 48.6153 52.5328 47.7027 52.0286C46.7957 51.5188 46.0902 50.8046 45.5863 49.8859C45.088 48.9615 44.8389 47.8832 44.8389 46.6507C44.8389 45.76 44.9872 44.9421 45.284 44.1971C45.5807 43.4464 46.0006 42.7966 46.5437 42.2476C47.0868 41.6986 47.7279 41.2729 48.467 40.9704C49.2116 40.6679 50.0235 40.5166 50.9025 40.5166C51.7703 40.5166 52.529 40.6258 53.1784 40.8443C53.8279 41.0572 54.3878 41.3625 54.8581 41.7602L54.0183 43.0543C53.6376 42.7126 53.1952 42.4577 52.6913 42.2896C52.1874 42.1216 51.6303 42.0375 51.0201 42.0375C50.3314 42.0375 49.7071 42.144 49.1472 42.3568C48.5873 42.5697 48.1086 42.8778 47.7111 43.2812C47.3192 43.6789 47.0168 44.1607 46.8041 44.7265C46.5913 45.2923 46.4849 45.9281 46.4849 46.6339C46.4849 47.6087 46.6725 48.4406 47.0476 49.1296C47.4284 49.8186 47.9659 50.3452 48.6601 50.7093C49.3544 51.0679 50.1746 51.2471 51.1208 51.2471C51.7311 51.2471 52.3162 51.1575 52.8761 50.9782C53.4416 50.7934 53.9707 50.4937 54.4634 50.0791L55.2025 51.4236C54.6258 51.8773 53.9791 52.2191 53.2624 52.4487C52.5514 52.6728 51.7619 52.7849 50.8941 52.7849Z" fill="white"/>
<path d="M10.3262 6.18523C10.905 5.59279 11.8599 5.58371 12.4542 6.16472C12.9691 6.66828 13.0466 7.45287 12.6817 8.03874C13.298 8.80642 14.3436 10.7065 14.8682 11.901C10.7164 12.2275 7.41187 15.56 7.12604 19.7253C5.7603 19.0917 3.94572 18.1375 3.30085 17.6432C2.72397 18.0216 1.93884 17.9621 1.42389 17.4587C0.829604 16.8776 0.81687 15.9223 1.39557 15.3298C1.97428 14.7373 2.92923 14.7282 3.5235 15.3092C3.80902 15.5885 3.95999 15.9546 3.97565 16.3249C4.65345 16.3561 5.34032 16.1101 5.84968 15.5885C6.67409 14.7442 6.76581 13.4521 6.13679 12.5026C5.74845 12.5088 5.3573 12.3659 5.05768 12.0729C4.46346 11.4919 4.45084 10.5375 5.02936 9.94499C5.60797 9.35255 6.562 9.34277 7.15632 9.92351C7.45601 10.2165 7.60781 10.605 7.61042 10.9938C8.57376 11.6012 9.86289 11.4788 10.6876 10.6344C11.197 10.1128 11.4269 9.42022 11.3799 8.74284C11.0095 8.73572 10.6403 8.59346 10.3546 8.31413C9.76034 7.73308 9.74756 6.77775 10.3262 6.18523Z" fill="#FFFF00"/>
<path d="M148.112 36.6258C146.315 36.6258 144.692 36.327 143.241 35.7294C141.79 35.1319 140.539 34.2963 139.489 33.2272C138.44 32.1582 137.632 30.9164 137.054 29.5066C136.499 28.0968 136.219 26.5796 136.219 24.9504C136.219 23.3211 136.494 21.8086 137.054 20.3941C137.632 18.9843 138.43 17.7519 139.457 16.7062C140.502 15.6371 141.752 14.8155 143.208 14.2366C144.682 13.6391 146.315 13.3403 148.112 13.3403C149.908 13.3403 151.499 13.6391 152.95 14.2366C154.425 14.8155 155.675 15.6371 156.701 16.7062C157.747 17.7519 158.558 18.9936 159.137 20.4268C159.716 21.8366 160 23.3445 160 24.9504C160 26.5563 159.711 28.0921 159.137 29.5066C158.558 30.9164 157.747 32.1582 156.701 33.2272C155.675 34.2963 154.425 35.1319 152.95 35.7294C151.494 36.327 149.885 36.6258 148.112 36.6258ZM148.112 32.0368C149.05 32.0368 149.917 31.8641 150.706 31.5233C151.518 31.1592 152.213 30.6597 152.792 30.0155C153.37 29.3712 153.818 28.6243 154.14 27.77C154.462 26.8924 154.621 25.954 154.621 24.9457C154.621 23.9373 154.462 23.013 154.14 22.1541C153.818 21.2998 153.37 20.5528 152.792 19.9086C152.213 19.2691 151.518 18.7742 150.706 18.4334C149.913 18.0693 149.05 17.8872 148.112 17.8872C147.174 17.8872 146.273 18.0693 145.485 18.4334C144.692 18.7742 144.001 19.2691 143.399 19.9086C142.821 20.5482 142.373 21.3091 142.051 22.1867C141.752 23.041 141.603 23.9607 141.603 24.9457C141.603 25.9307 141.752 26.8924 142.051 27.77C142.373 28.6243 142.821 29.3712 143.399 30.0155C143.997 30.655 144.692 31.1592 145.485 31.5233C146.273 31.8641 147.151 32.0368 148.112 32.0368Z" fill="#FFFF00"/>
<path d="M115.335 36.2057V13.7559H125.59C127.107 13.7559 128.488 14.0873 129.724 14.7502C130.984 15.4131 131.978 16.3328 132.706 17.5092C133.452 18.6856 133.825 20.044 133.825 21.5799C133.825 23.0131 133.485 24.3062 132.799 25.4593C132.113 26.5937 131.217 27.5133 130.107 28.2182L131.903 31.2666C132.01 31.416 132.127 31.5327 132.258 31.6214C132.407 31.7054 132.598 31.7474 132.836 31.7474H134.824L135.738 36.2057H131.679C130.718 36.2057 129.841 35.9816 129.052 35.5334C128.264 35.0619 127.643 34.455 127.195 33.7035L124.792 29.4366H120.724V36.2057H115.34H115.335ZM120.719 24.9831H124.984C125.604 24.9831 126.183 24.857 126.715 24.6003C127.247 24.3202 127.667 23.9374 127.965 23.4472C128.287 22.9337 128.446 22.3268 128.446 21.6173C128.446 20.9077 128.287 20.3148 127.965 19.82C127.643 19.3065 127.219 18.9237 126.682 18.6669C126.169 18.3868 125.604 18.2514 124.984 18.2514H120.719V24.9878V24.9831Z" fill="#FFFF00"/>
<path d="M100.595 36.6258C98.7988 36.6258 97.1752 36.327 95.7241 35.7294C94.2731 35.1319 93.0226 34.2963 91.9729 33.2272C90.9277 32.1582 90.1159 30.9164 89.5373 29.5066C88.9821 28.0968 88.7021 26.5796 88.7021 24.9504C88.7021 23.3211 88.9821 21.8086 89.5373 20.3941C90.1159 18.9843 90.9137 17.7519 91.9402 16.7062C92.9853 15.6371 94.2357 14.8155 95.6914 14.2366C97.1658 13.6391 98.7988 13.3403 100.595 13.3403C102.391 13.3403 103.983 13.6391 105.434 14.2366C106.908 14.8155 108.158 15.6371 109.185 16.7062C110.23 17.7519 111.042 18.9936 111.62 20.4268C112.199 21.8366 112.484 23.3445 112.484 24.9504C112.484 26.5563 112.194 28.0921 111.62 29.5066C111.046 30.9211 110.23 32.1582 109.185 33.2272C108.158 34.2963 106.908 35.1319 105.434 35.7294C103.978 36.327 102.368 36.6258 100.595 36.6258ZM100.595 32.0368C101.538 32.0368 102.401 31.8641 103.189 31.5233C104.001 31.1592 104.696 30.6597 105.275 30.0155C105.853 29.3712 106.301 28.6243 106.623 27.77C106.945 26.8924 107.104 25.954 107.104 24.9457C107.104 23.9373 106.945 23.013 106.623 22.1541C106.301 21.2951 105.853 20.5528 105.275 19.9086C104.696 19.2691 104.006 18.7742 103.189 18.4334C102.401 18.0693 101.533 17.8872 100.595 17.8872C99.6573 17.8872 98.7569 18.0693 97.9683 18.4334C97.1798 18.7742 96.4846 19.2691 95.8827 19.9086C95.3042 20.5482 94.8563 21.3091 94.5343 22.1867C94.2357 23.041 94.0864 23.9607 94.0864 24.9457C94.0864 25.9307 94.2357 26.8924 94.5343 27.77C94.8563 28.6243 95.3042 29.3712 95.8827 30.0155C96.4799 30.655 97.1752 31.1592 97.9683 31.5233C98.7569 31.8641 99.634 32.0368 100.595 32.0368Z" fill="#FFFF00"/>
<path d="M82.8236 36.2057C81.4565 36.2057 80.2481 35.9069 79.2029 35.3093C78.1765 34.6885 77.3646 33.8668 76.7674 32.8398C76.1889 31.8128 75.9043 30.6691 75.9043 29.4086V18.2468H69.8154V13.7559H87.3494V18.2468H81.2932V29.8895C81.2932 30.3796 81.4658 30.8091 81.8064 31.1732C82.147 31.5374 82.5763 31.7194 83.0895 31.7194H85.7677L86.6822 36.2103H82.8329L82.8236 36.2057Z" fill="#FFFF00"/>
<path d="M56.602 36.6258C54.8057 36.6258 53.182 36.327 51.731 35.7294C50.2799 35.1319 49.0295 34.2963 47.9797 33.2272C46.9346 32.1582 46.1227 30.9164 45.5442 29.5066C44.9889 28.0968 44.709 26.5796 44.709 24.9504C44.709 23.3211 44.9889 21.8086 45.5442 20.3941C46.1227 18.9843 46.9206 17.7519 47.947 16.7062C48.9922 15.6371 50.2426 14.8155 51.6983 14.2366C53.1727 13.6391 54.8057 13.3403 56.602 13.3403C58.3983 13.3403 59.9894 13.6391 61.4404 14.2366C62.9148 14.8155 64.1652 15.6371 65.1917 16.7062C66.2368 17.7519 67.0486 18.9936 67.6272 20.4268C68.2057 21.8366 68.4904 23.3445 68.4904 24.9504C68.4904 26.5563 68.2011 28.0921 67.6272 29.5066C67.0486 30.9164 66.2368 32.1582 65.1917 33.2272C64.1652 34.2963 62.9148 35.1319 61.4404 35.7294C59.9894 36.327 58.375 36.6258 56.602 36.6258ZM56.602 32.0368C57.5445 32.0368 58.4077 31.8641 59.1962 31.5233C60.008 31.1592 60.7032 30.6597 61.2818 30.0155C61.8603 29.3712 62.3082 28.6243 62.6302 27.77C62.9521 26.8924 63.1107 25.954 63.1107 24.9457C63.1107 23.9373 62.9521 23.013 62.6302 22.1541C62.3082 21.2998 61.8603 20.5528 61.2818 19.9086C60.7032 19.2691 60.0127 18.7742 59.1962 18.4334C58.4077 18.0693 57.5398 17.8872 56.602 17.8872C55.6642 17.8872 54.7637 18.0693 53.9752 18.4334C53.1867 18.7742 52.4915 19.2691 51.8896 19.9086C51.311 20.5482 50.8631 21.3091 50.5412 22.1867C50.2426 23.041 50.0933 23.9607 50.0933 24.9457C50.0933 25.9307 50.2426 26.8924 50.5412 27.77C50.8631 28.6243 51.311 29.3712 51.8896 30.0155C52.4868 30.655 53.182 31.1592 53.9752 31.5233C54.7637 31.8641 55.6409 32.0368 56.602 32.0368Z" fill="#FFFF00"/>
<path d="M36.908 36.2057C35.5176 36.2057 34.2999 35.8975 33.2547 35.2767C32.2096 34.6558 31.3978 33.8342 30.8192 32.8071C30.2407 31.7801 29.9561 30.6457 29.9561 29.4086V13.7559H35.3403V29.7914C35.3403 30.3049 35.5223 30.7531 35.8862 31.1406C36.2502 31.5234 36.6981 31.7194 37.2346 31.7194H43.1648L44.0793 36.2103H36.9127L36.908 36.2057Z" fill="#FFFF00"/>
<path d="M10.1451 36.2059V31.715H19.7285C20.1578 31.715 20.5404 31.6077 20.881 31.3929C21.2216 31.1782 21.4922 30.9028 21.6835 30.5573C21.8981 30.2165 22.0054 29.843 22.0054 29.4369C22.0054 29.0074 21.8981 28.6246 21.6835 28.2838C21.4922 27.9431 21.2262 27.663 20.881 27.4482C20.5404 27.2335 20.1531 27.1261 19.7285 27.1261H16.2665C14.9648 27.1261 13.775 26.8694 12.7066 26.3558C11.6381 25.8423 10.7843 25.0954 10.1404 24.1104C9.51986 23.1067 9.21191 21.907 9.21191 20.5205C9.21191 19.134 9.51053 17.9669 10.1077 16.9586C10.705 15.9549 11.5168 15.1753 12.5433 14.6151C13.5697 14.0362 14.7035 13.7515 15.9399 13.7515H25.8453V18.2424H16.5512C16.1686 18.2424 15.814 18.3404 15.492 18.5318C15.1701 18.7232 14.9275 18.9799 14.7548 19.3021C14.5822 19.6242 14.4982 19.9743 14.4982 20.3618C14.4982 20.7492 14.5822 21.0993 14.7548 21.4215C14.9275 21.7202 15.1701 21.9676 15.492 22.159C15.814 22.3504 16.1639 22.4485 16.5512 22.4485H20.1718C21.6042 22.4485 22.8406 22.7286 23.8904 23.2841C24.9589 23.8163 25.78 24.5772 26.3586 25.5622C26.9558 26.5239 27.2544 27.6583 27.2544 28.9607C27.2544 30.5013 26.9465 31.8131 26.3259 32.9054C25.7287 33.9745 24.9169 34.7961 23.8904 35.375C22.8639 35.9305 21.7302 36.2106 20.4937 36.2106H10.1404L10.1451 36.2059Z" fill="#FFFF00"/>
</svg>
