<?xml version="1.0" encoding="utf-8"?>
<svg xmlns="http://www.w3.org/2000/svg" width="266" height="64" viewBox="0 0 133 32" fill="none">
<path d="M11.5692 4C17.7691 4.00022 22.7948 9.02666 22.7948 15.2266C22.7946 21.4263 17.7689 26.4519 11.5692 26.4521C5.36931 26.4521 0.34287 21.4264 0.342651 15.2266C0.342651 9.02653 5.36918 4 11.5692 4ZM11.5682 6.30078C6.63871 6.30089 2.64256 10.297 2.64246 15.2266C2.64246 20.1562 6.63865 24.1522 11.5682 24.1523C16.4979 24.1523 20.494 20.1562 20.494 15.2266C20.4939 10.297 16.4979 6.30078 11.5682 6.30078Z" fill="white"/>
<path d="M5.42741 14.8548C8.42488 14.8548 10.8548 12.4249 10.8548 9.42741C10.8548 6.42993 8.42488 4 5.42741 4C2.42993 4 0 6.42993 0 9.42741C0 12.4249 2.42993 14.8548 5.42741 14.8548Z" fill="#49B356"/>
<path d="M31.0792 12.2833C31.0792 12.8261 31.3648 13.2831 31.9076 13.6259C32.4503 13.9687 33.3359 14.2543 34.5356 14.5114C36.1067 14.8256 37.2779 15.3684 38.0491 16.0539C38.8204 16.7681 39.1917 17.7107 39.1917 18.8819C39.1917 20.0816 38.7061 21.1386 37.7349 21.9669C36.7637 22.8239 35.4782 23.2524 33.8786 23.2524C32.1932 23.2524 30.8221 22.8239 29.8223 21.9955C28.8225 21.1671 28.1655 20.0531 27.8799 18.6819L30.2508 17.4822C30.6793 19.7389 31.879 20.8815 33.85 20.8815C34.6499 20.8815 35.3069 20.7101 35.7639 20.3387C36.2495 19.9959 36.478 19.5103 36.478 18.939C36.478 18.3106 36.1924 17.825 35.6211 17.4822C35.0498 17.1394 34.1642 16.8252 32.9359 16.5967C31.5648 16.311 30.4793 15.8254 29.6795 15.1113C28.8797 14.3971 28.4798 13.4545 28.4798 12.3119C28.4798 11.1407 28.9368 10.1695 29.8795 9.45535C30.7935 8.74122 32.0219 8.39844 33.5072 8.39844C36.2209 8.39844 38.0206 9.62674 38.9346 12.0548L36.8208 13.2831C36.2495 11.5977 35.1355 10.7408 33.4501 10.7408C32.7645 10.7408 32.1932 10.8551 31.7362 11.1121C31.3077 11.3978 31.0792 11.7691 31.0792 12.2833ZM40.3058 27.1373V12.8546H42.8767V14.3115C43.2194 13.7973 43.7336 13.3688 44.3335 13.0546C44.9619 12.7404 45.6475 12.569 46.3616 12.569C47.6756 12.569 48.7897 13.0546 49.6752 14.0258C50.5607 14.997 51.0178 16.2825 51.0178 17.9107C51.0178 19.5103 50.5607 20.7958 49.6181 21.767C48.6754 22.7668 47.5328 23.2524 46.1617 23.2524C44.7905 23.2524 43.7051 22.7382 42.8767 21.7099V27.1373H40.3058ZM47.6185 15.8254C47.0758 15.2541 46.3902 14.9685 45.5904 14.9685C44.762 14.9685 44.105 15.2541 43.5622 15.8254C43.0195 16.3967 42.7338 17.0823 42.7338 17.9107C42.7338 18.7391 43.0195 19.4246 43.5622 19.9959C44.105 20.5672 44.7905 20.8529 45.5904 20.8529C46.4188 20.8529 47.0758 20.5672 47.6185 19.9959C48.1612 19.4246 48.4469 18.7391 48.4469 17.9107C48.4183 17.0823 48.1612 16.3967 47.6185 15.8254ZM61.0727 13.9972C62.1868 14.9399 62.7295 16.2539 62.7295 17.9107C62.7295 19.5675 62.1868 20.8815 61.1013 21.8241C60.0158 22.7668 58.7018 23.2524 57.2164 23.2524C55.731 23.2524 54.417 22.7668 53.3316 21.8241C52.2461 20.8815 51.7033 19.5675 51.7033 17.9107C51.7033 16.2539 52.2461 14.9399 53.3316 13.9972C54.417 13.0546 55.731 12.569 57.2164 12.569C58.7018 12.569 59.9873 13.0546 61.0727 13.9972ZM55.1597 20.0531C55.731 20.5958 56.4166 20.8529 57.2164 20.8529C58.0163 20.8529 58.7018 20.5958 59.2731 20.0531C59.8444 19.5103 60.1301 18.7962 60.1301 17.9107C60.1301 17.0252 59.8444 16.311 59.2731 15.7683C58.7018 15.2255 58.0163 14.9685 57.2164 14.9685C56.4166 14.9685 55.731 15.2255 55.1597 15.7683C54.5884 16.311 54.3028 17.0252 54.3028 17.9107C54.3028 18.7962 54.5884 19.5103 55.1597 20.0531ZM70.2136 12.7118V15.0827C69.9566 14.9399 69.271 14.997 68.9853 14.997C68.2426 14.997 67.6428 15.2827 67.2143 15.854C66.7858 16.4253 66.5573 17.1394 66.5573 17.9964V22.9953H63.9864V12.8546H66.5573V14.4543C67.1857 13.1974 68.1284 12.569 69.3852 12.569C69.6423 12.569 69.928 12.6261 70.2136 12.7118ZM71.4705 12.8546V10.1124H74.0414V12.8546H76.2409V14.9399H74.0414V19.5389C74.0414 20.4816 74.4699 20.9672 75.3268 20.9672C75.6125 20.9672 75.8981 20.9386 76.1838 20.8529L76.4409 22.9667C75.9267 23.1667 75.3554 23.2524 74.727 23.2524C72.556 23.2524 71.4991 22.1669 71.4991 20.0245V14.9399L71.4705 12.8546ZM79.7544 15.3398C79.7544 15.9682 80.5543 16.4538 82.1539 16.7681C83.3251 17.0252 84.1821 17.3965 84.7248 17.8821C85.2675 18.3677 85.5246 19.0533 85.5246 19.8817C85.5246 20.8529 85.1533 21.6527 84.4392 22.3097C83.725 22.9382 82.7538 23.2524 81.5255 23.2524C80.3543 23.2524 79.3831 22.9667 78.6118 22.3954C77.8406 21.8241 77.2693 21.11 76.8979 20.2245L78.9546 18.9105C79.1831 19.5675 79.5259 20.1102 79.9544 20.5101C80.3829 20.91 80.9256 21.11 81.5541 21.11C81.9825 21.11 82.3539 21.0243 82.6681 20.8243C82.9823 20.6244 83.1537 20.3387 83.1537 19.9959C83.1537 19.6817 82.9823 19.3961 82.6395 19.2247C82.2967 19.0247 81.754 18.8533 80.9827 18.7105C78.6404 18.2535 77.4692 17.1965 77.4692 15.5398C77.4692 14.6257 77.8406 13.9115 78.5833 13.3974C79.326 12.8832 80.2115 12.6261 81.2684 12.6261C82.3539 12.6261 83.2108 12.8261 83.8393 13.226C84.4677 13.6259 85.0105 14.2829 85.4389 15.1684L83.5822 16.2825C83.1251 15.1113 82.3539 14.5114 81.297 14.5114C80.2686 14.4543 79.7544 14.7399 79.7544 15.3398ZM86.4387 22.9667V8.68409H89.0096V14.0829C89.8094 13.0546 90.9235 12.5404 92.3232 12.5404C93.7229 12.5404 94.8655 13.026 95.7796 13.9687C96.6936 14.9399 97.1507 16.2253 97.1507 17.8821C97.1507 19.5103 96.6937 20.8243 95.751 21.767C94.8083 22.7382 93.6657 23.2238 92.2946 23.2238C90.8663 23.2238 89.7523 22.7096 89.0096 21.6813V22.9382H86.4387V22.9667ZM89.6666 20.0531C90.2093 20.5958 90.8949 20.8815 91.7233 20.8815C92.5517 20.8815 93.2373 20.5958 93.78 20.0531C94.3227 19.5103 94.5798 18.7962 94.5798 17.9392C94.5798 17.0823 94.3227 16.3682 93.78 15.8254C93.2373 15.2827 92.5517 14.997 91.7233 14.997C90.8949 14.997 90.2093 15.2827 89.6666 15.8254C89.1239 16.3682 88.8668 17.0823 88.8668 17.9392C88.8668 18.7676 89.1239 19.4818 89.6666 20.0531ZM108.063 18.5391H100.264C100.35 19.3104 100.636 19.9388 101.15 20.3959C101.664 20.8529 102.292 21.0814 103.035 21.0814C104.292 21.0814 105.206 20.453 105.835 19.2247L107.748 20.3387C106.806 22.3097 105.206 23.3095 103.007 23.3095C101.578 23.3095 100.35 22.8239 99.3217 21.8241C98.3219 20.8243 97.8077 19.5389 97.8077 17.9678C97.8077 16.3967 98.3219 15.1113 99.3502 14.1115C100.379 13.1117 101.635 12.6261 103.121 12.6261C104.549 12.6261 105.749 13.1117 106.663 14.0544C107.577 14.997 108.063 16.2253 108.063 17.6822V18.5391ZM103.064 14.54C102.407 14.54 101.807 14.7399 101.321 15.1398C100.836 15.5398 100.493 16.0539 100.293 16.6538H105.72C105.606 15.9968 105.292 15.4541 104.835 15.0827C104.378 14.7114 103.778 14.54 103.064 14.54ZM108.891 12.8546V10.1124H111.462V12.8546H113.661V14.9399H111.462V19.5389C111.462 20.4816 111.89 20.9672 112.747 20.9672C113.033 20.9672 113.319 20.9386 113.604 20.8529L113.861 22.9667C113.347 23.1667 112.776 23.2524 112.147 23.2524C109.977 23.2524 108.92 22.1669 108.92 20.0245V14.9399L108.891 12.8546ZM116.004 22.9667C116.746 22.9667 117.375 22.3669 117.375 21.5956C117.375 20.8529 116.775 20.2245 116.004 20.2245C115.261 20.2245 114.633 20.8243 114.633 21.5956C114.633 22.3669 115.261 22.9667 116.004 22.9667ZM118.518 22.9667V12.8546H121.088V22.9667H118.518ZM131.343 13.9972C132.457 14.9399 133 16.2539 133 17.9107C133 19.5675 132.457 20.8815 131.372 21.8241C130.286 22.7668 128.972 23.2524 127.487 23.2524C126.002 23.2524 124.688 22.7668 123.602 21.8241C122.517 20.8815 121.974 19.5675 121.974 17.9107C121.974 16.2539 122.517 14.9399 123.602 13.9972C124.688 13.0546 126.002 12.569 127.487 12.569C128.972 12.569 130.229 13.0546 131.343 13.9972ZM125.402 20.0531C125.973 20.5958 126.659 20.8529 127.458 20.8529C128.258 20.8529 128.944 20.5958 129.515 20.0531C130.086 19.5103 130.372 18.7962 130.372 17.9107C130.372 17.0252 130.086 16.311 129.515 15.7683C128.944 15.2255 128.258 14.9685 127.458 14.9685C126.659 14.9685 125.973 15.2255 125.402 15.7683C124.83 16.311 124.545 17.0252 124.545 17.9107C124.545 18.7962 124.83 19.5103 125.402 20.0531Z" fill="white"/>
<path d="M118.372 10.0567C118.372 10.8291 119.001 11.4298 119.745 11.4298C120.489 11.4298 121.118 10.8291 121.118 10.0567C121.118 9.28432 120.489 8.68359 119.745 8.68359C118.973 8.68359 118.372 9.28432 118.372 10.0567Z" fill="#49B356"/>
</svg>