<svg width="88" height="40" viewBox="0 0 88 40" fill="none" xmlns="http://www.w3.org/2000/svg">
<path d="M57.1098 27.4505V12.5464L51.0422 6.47314H37.7999L31.7323 12.5464V27.4505L37.7999 33.5238H51.0422L57.1098 27.4505ZM37.8724 11.4105H50.9697C51.6361 11.4105 52.177 11.9519 52.177 12.619V27.3779C52.177 28.045 51.6361 28.5865 50.9697 28.5865H37.8724C37.206 28.5865 36.665 28.045 36.665 27.3779V12.619C36.665 11.9519 37.206 11.4105 37.8724 11.4105Z" fill="#01EAFF"/>
<path d="M83.0673 33.5238H88V12.5464L81.9324 6.47314H62.6226V33.5238H67.5553V11.4105H81.8599C82.5264 11.4105 83.0673 11.9519 83.0673 12.619V33.5238Z" fill="#01EAFF"/>
<path d="M19.1175 22.4126H8.41268L0 30.674L3.38515 34.1265L12.9216 24.7626C13.3928 24.3021 14.1429 24.3021 14.6141 24.7626L24.1506 34.1265L27.5357 30.674L19.123 22.4126H19.1175Z" fill="#FF36B2"/>
<path d="M19.1175 17.587L27.5301 9.32555L24.1478 5.87305L14.6114 15.2369C14.1401 15.6975 13.39 15.6975 12.9188 15.2369L3.38236 5.87305L0 9.32555L8.41269 17.587H19.1202H19.1175Z" fill="#FF36B2"/>
</svg>
