<?xml version="1.0" encoding="UTF-8"?>
<svg xmlns="http://www.w3.org/2000/svg" width="1200" height="630" viewBox="0 0 1200 630" fill="none">
  <defs>
    <linearGradient id="bg" x1="0" y1="0" x2="1200" y2="630" gradientUnits="userSpaceOnUse">
      <stop stop-color="#0A1931"/>
      <stop offset="1" stop-color="#111417"/>
    </linearGradient>
    <linearGradient id="gold" x1="0" y1="0" x2="120" y2="120" gradientUnits="userSpaceOnUse">
      <stop stop-color="#FFB800"/>
      <stop offset="1" stop-color="#FFC300"/>
    </linearGradient>
    <linearGradient id="emerald" x1="0" y1="0" x2="80" y2="0" gradientUnits="userSpaceOnUse">
      <stop stop-color="#00A86B"/>
      <stop offset="1" stop-color="#00C87A"/>
    </linearGradient>
    <pattern id="mx" width="48" height="48" patternUnits="userSpaceOnUse" patternTransform="rotate(12)">
      <rect width="48" height="48" fill="none"/>
      <path d="M0 24h48M24 0v48" stroke="#F5F5F0" stroke-opacity="0.03" stroke-width="1"/>
      <circle cx="24" cy="24" r="2" fill="#FFB800" fill-opacity="0.06"/>
    </pattern>
  </defs>

  <rect width="1200" height="630" fill="url(#bg)"/>
  <rect width="1200" height="630" fill="url(#mx)"/>

  <circle cx="180" cy="120" r="90" fill="#FFB800" fill-opacity="0.06"/>
  <circle cx="1020" cy="500" r="110" fill="#00A86B" fill-opacity="0.07"/>
  <circle cx="900" cy="140" r="70" fill="#F5F5F0" fill-opacity="0.04"/>

  <g transform="translate(600 290)">
    <path d="M-72 -88 L72 -88 L88 0 C88 72 0 112 0 112 C0 112 -88 72 -88 0 Z" stroke="url(#gold)" stroke-width="3" fill="#16233f" fill-opacity="0.85"/>
    <path d="M-40 -40 L0 -72 L40 -40 L40 8 C40 44 0 68 0 68 C0 68 -40 44 -40 8 Z" stroke="#00A86B" stroke-width="2" fill="none" stroke-opacity="0.9"/>
    <rect x="-18" y="-8" width="36" height="30" rx="4" stroke="#F5F5F0" stroke-width="2" fill="#111417"/>
    <path d="M-10 -8 V-18 C-10 -28 10 -28 10 -18 V-8" stroke="#F5F5F0" stroke-width="2" fill="none"/>
    <circle cx="0" cy="8" r="4" fill="#FFB800"/>
  </g>

  <g transform="translate(280 320)">
    <rect x="-80" y="-48" width="160" height="96" rx="14" stroke="#B8B8B0" stroke-width="2" fill="#16233f" fill-opacity="0.9"/>
    <rect x="-56" y="-24" width="112" height="48" rx="8" stroke="url(#gold)" stroke-width="1.5" fill="none" stroke-opacity="0.7"/>
    <circle cx="48" cy="0" r="10" fill="url(#gold)" fill-opacity="0.85"/>
    <path d="M-64 -8 H24" stroke="#F5F5F0" stroke-width="1.5" stroke-opacity="0.35"/>
  </g>

  <g transform="translate(920 300)">
    <circle cx="0" cy="0" r="44" stroke="url(#gold)" stroke-width="2.5" fill="#16233f"/>
    <path d="M-10 -6 C-10 -16 10 -16 10 -6 V4 H-10 V-6 Z M-6 -6 H6" stroke="#FFB800" stroke-width="2" fill="none" stroke-linecap="round"/>
    <circle cx="72" cy="-36" r="32" stroke="#F5F5F0" stroke-width="2" fill="#111417" stroke-opacity="0.5"/>
    <path d="M62 -42 L72 -52 L82 -42 L82 -30 C82 -20 72 -14 72 -14 C72 -14 62 -20 62 -30 Z" stroke="#F5F5F0" stroke-width="1.75" fill="none"/>
    <circle cx="88" cy="40" r="28" stroke="url(#emerald)" stroke-width="2" fill="#16233f"/>
    <path d="M78 40 H98 M88 30 V50" stroke="#00A86B" stroke-width="2" stroke-linecap="round"/>
  </g>

  <path d="M360 300 C460 260 520 260 528 270" stroke="#FFB800" stroke-width="1.5" stroke-opacity="0.25" stroke-dasharray="6 8"/>
  <path d="M840 300 C740 260 680 260 672 270" stroke="#00A86B" stroke-width="1.5" stroke-opacity="0.25" stroke-dasharray="6 8"/>

  <rect x="120" y="560" width="960" height="3" rx="1.5" fill="url(#gold)" fill-opacity="0.45"/>
  <rect x="120" y="572" width="640" height="2" rx="1" fill="#F5F5F0" fill-opacity="0.12"/>
</svg>
