<?xml version="1.0" encoding="UTF-8"?>
<svg xmlns="http://www.w3.org/2000/svg" width="1200" height="630" viewBox="0 0 1200 630" fill="none">
  <defs>
    <linearGradient id="bg" x1="0" y1="0" x2="1200" y2="630" gradientUnits="userSpaceOnUse">
      <stop stop-color="#0A1931"/>
      <stop offset="1" stop-color="#111417"/>
    </linearGradient>
    <linearGradient id="gold" x1="0" y1="0" x2="120" y2="120" gradientUnits="userSpaceOnUse">
      <stop stop-color="#FFB800"/>
      <stop offset="1" stop-color="#FFC300"/>
    </linearGradient>
    <linearGradient id="btc" x1="0" y1="0" x2="100" y2="100" gradientUnits="userSpaceOnUse">
      <stop stop-color="#FFB800"/>
      <stop offset="1" stop-color="#F7931A"/>
    </linearGradient>
    <pattern id="chain" width="56" height="56" patternUnits="userSpaceOnUse">
      <rect width="56" height="56" fill="none"/>
      <path d="M0 28h56M28 0v56" stroke="#F5F5F0" stroke-opacity="0.025" stroke-width="1"/>
      <circle cx="28" cy="28" r="2" fill="#FFB800" fill-opacity="0.07"/>
    </pattern>
  </defs>

  <rect width="1200" height="630" fill="url(#bg)"/>
  <rect width="1200" height="630" fill="url(#chain)"/>

  <circle cx="190" cy="130" r="85" fill="#FFB800" fill-opacity="0.06"/>
  <circle cx="1010" cy="490" r="105" fill="#00A86B" fill-opacity="0.06"/>
  <circle cx="870" cy="115" r="55" fill="#F5F5F0" fill-opacity="0.04"/>

  <g transform="translate(600 305)">
    <circle cx="0" cy="0" r="90" stroke="url(#btc)" stroke-width="3" fill="#16233f" fill-opacity="0.9"/>
    <circle cx="0" cy="0" r="66" stroke="#FFB800" stroke-width="1.5" fill="none" stroke-opacity="0.35"/>
    <path d="M-6 -28 C14 -28 22 -18 22 -6 C22 6 14 12 4 14 C16 16 24 24 24 36 C24 50 10 56 -6 56 C-22 56 -32 48 -32 36 H-18 C-18 42 -12 46 -6 46 C0 46 6 42 6 36 C6 30 0 26 -10 24 V10 C0 12 6 8 6 2 C6 -6 0 -12 -6 -12 C-12 -12 -18 -8 -18 -2 H-32 C-32 -16 -22 -28 -6 -28 Z" fill="url(#gold)"/>
  </g>

  <g transform="translate(290 320)">
    <rect x="-70" y="-42" width="140" height="84" rx="12" stroke="#B8B8B0" stroke-width="2" fill="#16233f" fill-opacity="0.9"/>
    <rect x="-46" y="-18" width="92" height="36" rx="6" stroke="url(#gold)" stroke-width="1.5" fill="none" stroke-opacity="0.55"/>
    <circle cx="38" cy="0" r="8" fill="url(#btc)"/>
    <path d="M-52 -2 H18" stroke="#F5F5F0" stroke-width="1.5" stroke-opacity="0.28"/>
  </g>

  <g transform="translate(910 295)">
    <rect x="-12" y="-12" width="24" height="24" rx="4" stroke="#00A86B" stroke-width="2" fill="#111417"/>
    <rect x="28" y="-12" width="24" height="24" rx="4" stroke="#00A86B" stroke-width="2" fill="#111417"/>
    <rect x="68" y="-12" width="24" height="24" rx="4" stroke="#00A86B" stroke-width="2" fill="#111417"/>
    <path d="M12 0 H28 M52 0 H68" stroke="#00A86B" stroke-width="2" stroke-opacity="0.6"/>
    <path d="M-12 24 V48 M28 24 V48 M68 24 V48" stroke="#B8B8B0" stroke-width="1.5" stroke-opacity="0.25" stroke-dasharray="4 6"/>
  </g>

  <path d="M368 298 C455 268 518 268 532 278" stroke="#FFB800" stroke-width="1.5" stroke-opacity="0.28" stroke-dasharray="6 8"/>
  <path d="M832 298 C745 268 682 268 668 278" stroke="#00A86B" stroke-width="1.5" stroke-opacity="0.28" stroke-dasharray="6 8"/>

  <rect x="120" y="560" width="960" height="3" rx="1.5" fill="url(#btc)" fill-opacity="0.5"/>
  <rect x="120" y="572" width="520" height="2" rx="1" fill="#F5F5F0" fill-opacity="0.1"/>
</svg>
